<svg width="18" height="18" viewBox="0 0 18 18" fill="none" xmlns="http://www.w3.org/2000/svg">
<path d="M15.4598 12.2778V2.61111C15.4598 2.18382 15.2906 1.77403 14.9893 1.47188C14.688 1.16974 14.2793 1 13.8532 1H2.60665C2.18054 1 1.77188 1.16974 1.47058 1.47188C1.16927 1.77403 1 2.18382 1 2.61111V15.5C1 15.9273 1.16927 16.3371 1.47058 16.6392C1.77188 16.9414 2.18054 17.1111 2.60665 17.1111H9.83657M1 5.83333H7.42659V4.22222M15.4598 5.83333H9.03324V4.22222M11.4432 15.5L13.0499 17.1111L16.2632 13.8889" stroke="black" stroke-width="1.49603" stroke-linecap="round" stroke-linejoin="round"/>
<path d="M15.4598 12.2778V2.61111C15.4598 2.18382 15.2906 1.77403 14.9893 1.47188C14.688 1.16974 14.2793 1 13.8532 1H2.60665C2.18054 1 1.77188 1.16974 1.47058 1.47188C1.16927 1.77403 1 2.18382 1 2.61111V15.5C1 15.9273 1.16927 16.3371 1.47058 16.6392C1.77188 16.9414 2.18054 17.1111 2.60665 17.1111H9.83657M1 5.83333H7.42659V4.22222M15.4598 5.83333H9.03324V4.22222M11.4432 15.5L13.0499 17.1111L16.2632 13.8889" stroke="#1665F5" stroke-width="1.49603" stroke-linecap="round" stroke-linejoin="round"/>
</svg>
